HIERARCHY
ROOT hip
{
  OFFSET 0 0 0
  CHANNELS 6 Xposition Yposition Zposition Zrotation Yrotation Xrotation
  JOINT abdomen
  {
    OFFSET 0 20.6881 -0.73152
    CHANNELS 3 Zrotation Xrotation Yrotation
    JOINT chest
    {
      OFFSET 0 11.7043 -0.48768
      CHANNELS 3 Zrotation Xrotation Yrotation
      JOINT neck
      {
        OFFSET 0 22.1894 -2.19456
        CHANNELS 3 Zrotation Xrotation Yrotation
        JOINT head
        {
          OFFSET -0.24384 7.07133 1.2192
          CHANNELS 3 Zrotation Xrotation Yrotation
          JOINT leftEye
          {
            OFFSET 4.14528 8.04674 8.04672
            CHANNELS 3 Zrotation Xrotation Yrotation
            End Site
            {
              OFFSET 1 0 0
            }
          }
          JOINT rightEye
          {
            OFFSET -3.6576 8.04674 8.04672
            CHANNELS 3 Zrotation Xrotation Yrotation
            End Site
            {
              OFFSET 1 0 0
            }
          }
        }
      }
      JOINT rCollar
      {
        OFFSET -2.68224 19.2634 -4.8768
        CHANNELS 3 Zrotation Xrotation Yrotation
        JOINT rShldr
        {
          OFFSET -8.77824 -1.95073 1.46304
          CHANNELS 3 Zrotation Xrotation Yrotation
          JOINT rForeArm
          {
            OFFSET -28.1742 -1.7115 0.48768
            CHANNELS 3 Zrotation Xrotation Yrotation
            JOINT rHand
            {
              OFFSET -22.5879 0.773209 7.07136
              CHANNELS 3 Zrotation Xrotation Yrotation
              JOINT rThumb1
              {
                OFFSET -1.2192 -0.487915 3.41376
                CHANNELS 3 Zrotation Xrotation Yrotation
                JOINT rThumb2
                {
                  OFFSET -3.37035 -0.52449 3.41376
                  CHANNELS 3 Zrotation Xrotation Yrotation
                  End Site
                  {
                    OFFSET -1.78271 -1.18214 1.43049
                  }
                }
              }
              JOINT rIndex1
              {
                OFFSET -7.75947 0.938293 5.60832
                CHANNELS 3 Zrotation Xrotation Yrotation
                JOINT rIndex2
                {
                  OFFSET -2.54057 -0.884171 1.56538
                  CHANNELS 3 Zrotation Xrotation Yrotation
                  End Site
                  {
                    OFFSET -1.62519 -0.234802 1.16502
                  }
                }
              }
              JOINT rMid1
              {
                OFFSET -8.24714 1.18213 3.41376
                CHANNELS 3 Zrotation Xrotation Yrotation
                JOINT rMid2
                {
                  OFFSET -3.10165 -0.590103 1.0647
                  CHANNELS 3 Zrotation Xrotation Yrotation
                  End Site
                  {
                    OFFSET -2.48547 -0.328903 0.83742
                  }
                }
              }
              JOINT rRing1
              {
                OFFSET -8.82822 0.546677 1.51678
                CHANNELS 3 Zrotation Xrotation Yrotation
                JOINT rRing2
                {
                  OFFSET -2.60934 -0.819778 -0.0198488
                  CHANNELS 3 Zrotation Xrotation Yrotation
                  End Site
                  {
                    OFFSET -2.33842 -0.294052 0.168128
                  }
                }
              }
              JOINT rPinky1
              {
                OFFSET -8.27202 -0.0477905 -0.4584
                CHANNELS 3 Zrotation Xrotation Yrotation
                JOINT rPinky2
                {
                  OFFSET -1.82734 -0.647385 -0.700984
                  CHANNELS 3 Zrotation Xrotation Yrotation
                  End Site
                  {
                    OFFSET -1.69225 -0.51767 -0.607171
                  }
                }
              }
            }
          }
        }
      }
      JOINT lCollar
      {
        OFFSET 2.68224 19.2634 -4.8768
        CHANNELS 3 Zrotation Xrotation Yrotation
        JOINT lShldr
        {
          OFFSET 8.77824 -1.95073 1.46304
          CHANNELS 3 Zrotation Xrotation Yrotation
          JOINT lForeArm
          {
            OFFSET 28.1742 -1.7115 0.48768
            CHANNELS 3 Zrotation Xrotation Yrotation
            JOINT lHand
            {
              OFFSET 22.5879 0.773209 7.07136
              CHANNELS 3 Zrotation Xrotation Yrotation
              JOINT lThumb1
              {
                OFFSET 1.2192 -0.487915 3.41376
                CHANNELS 3 Zrotation Xrotation Yrotation
                JOINT lThumb2
                {
                  OFFSET 3.37035 -0.52449 3.41376
                  CHANNELS 3 Zrotation Xrotation Yrotation
                  End Site
                  {
                    OFFSET 1.78271 -1.18214 1.43049
                  }
                }
              }
              JOINT lIndex1
              {
                OFFSET 7.75947 0.938293 5.60832
                CHANNELS 3 Zrotation Xrotation Yrotation
                JOINT lIndex2
                {
                  OFFSET 2.54057 -0.884171 1.56538
                  CHANNELS 3 Zrotation Xrotation Yrotation
                  End Site
                  {
                    OFFSET 1.62519 -0.234802 1.16502
                  }
                }
              }
              JOINT lMid1
              {
                OFFSET 8.24714 1.18213 3.41376
                CHANNELS 3 Zrotation Xrotation Yrotation
                JOINT lMid2
                {
                  OFFSET 3.10165 -0.590103 1.0647
                  CHANNELS 3 Zrotation Xrotation Yrotation
                  End Site
                  {
                    OFFSET 2.48547 -0.328903 0.83742
                  }
                }
              }
              JOINT lRing1
              {
                OFFSET 8.82822 0.546677 1.51678
                CHANNELS 3 Zrotation Xrotation Yrotation
                JOINT lRing2
                {
                  OFFSET 2.60934 -0.819778 -0.0198488
                  CHANNELS 3 Zrotation Xrotation Yrotation
                  End Site
                  {
                    OFFSET 2.33842 -0.294052 0.168128
                  }
                }
              }
              JOINT lPinky1
              {
                OFFSET 8.27202 -0.0477905 -0.4584
                CHANNELS 3 Zrotation Xrotation Yrotation
                JOINT lPinky2
                {
                  OFFSET 1.82734 -0.647385 -0.700984
                  CHANNELS 3 Zrotation Xrotation Yrotation
                  End Site
                  {
                    OFFSET 1.69225 -0.51767 -0.607171
                  }
                }
              }
            }
          }
        }
      }
    }
  }
  JOINT rButtock
  {
    OFFSET -8.77824 4.35084 1.2192
    CHANNELS 3 Zrotation Xrotation Yrotation
    JOINT rThigh
    {
      OFFSET 0 -1.70687 -2.19456
      CHANNELS 3 Zrotation Xrotation Yrotation
      JOINT rShin
      {
        OFFSET 0 -36.8199 0.73152
        CHANNELS 3 Zrotation Xrotation Yrotation
        JOINT rFoot
        {
          OFFSET 0.73152 -45.1104 -5.12064
          CHANNELS 3 Zrotation Xrotation Yrotation
          End Site
          {
            OFFSET -1.1221 -3.69964 12.103
          }
        }
      }
    }
  }
  JOINT lButtock
  {
    OFFSET 8.77824 4.35084 1.2192
    CHANNELS 3 Zrotation Xrotation Yrotation
    JOINT lThigh
    {
      OFFSET 0 -1.70687 -2.19456
      CHANNELS 3 Zrotation Xrotation Yrotation
      JOINT lShin
      {
        OFFSET 0 -36.8199 0.73152
        CHANNELS 3 Zrotation Xrotation Yrotation
        JOINT lFoot
        {
          OFFSET -0.73152 -45.1104 -5.12064
          CHANNELS 3 Zrotation Xrotation Yrotation
          End Site
          {
            OFFSET 1.1221 -3.69964 12.103
          }
        }
      }
    }
  }
}
MOTION
Frames:	6
Frame Time:	0.00833333
57.4843 87.1765 -224.034 -182.048 -143.086 186.05 6.62275 -1.22262 0.803921 2.03998 -6.73462 0.414885 5.28848 9.67546 9.08881 -8.7712 -21.2206 15.8123 -0.0 0.0 0.0 -0.0 0.0 0.0 3.03909e-14 2.20114e-14 9.21752e-13 78.9513 27.7489 -14.5736 -14.6757 -7.51219 26.9251 -0.452433 18.7654 2.73692 -1.71108e-09 3.14602e-09 4.94662e-10 -2.94598e-09 5.43722e-09 8.80115e-10 -1.71107e-09 3.14602e-09 4.94652e-10 7.73091 5.47488 0.417314 -1.71108e-09 3.14602e-09 4.94662e-10 2.90554 0.965183 0.102902 -1.71107e-09 3.14602e-09 4.94662e-10 10.2786 0.731801 0.0259123 -1.71108e-09 3.14602e-09 4.94674e-10 2.22167 -0.733487 -0.20892 3.02994e-14 2.20195e-14 9.21417e-13 -87.7447 46.2478 11.4004 18.3297 -11.0456 -34.7636 0.381842 17.3158 -2.5111 -5.15908e-10 -1.29955e-09 -4.26296e-10 -8.97319e-10 -2.23653e-09 -7.30372e-10 -5.15911e-10 -1.29955e-09 -4.26288e-10 -7.73091 5.47488 -0.417314 -5.15902e-10 -1.29955e-09 -4.26308e-10 -2.90554 0.965183 -0.102902 -5.15916e-10 -1.29955e-09 -4.26296e-10 -10.2786 0.731801 -0.0259123 -5.15906e-10 -1.29955e-09 -4.26303e-10 -2.22167 -0.733487 0.20892 -2.03217e-16 0.0 -3.88251e-19 6.99583 -21.8733 -14.1087 -0.22342 40.3784 1.13743 -16.9988 -13.8372 -41.2317 2.03217e-16 0.0 3.88251e-19 -1.65035 -9.46437 -7.60851 0.141001 26.5858 -0.650675 7.10179 -16.3407 18.277
57.8035 87.1568 -224.087 -181.673 -144.128 185.895 6.54477 -1.11652 0.846919 1.98307 -6.6744 0.417971 5.00081 9.67005 8.96801 -8.69487 -21.5071 15.6059 -0.0 0.0 0.0 -0.0 0.0 0.0 8.33514e-14 4.33657e-14 1.13294e-12 78.847 27.9904 -14.5636 -14.7515 -7.57641 27.0803 -0.441878 18.5546 2.70388 -3.3499e-09 5.00284e-09 4.97219e-10 -5.77633e-09 8.65207e-09 9.11649e-10 -3.3499e-09 5.00284e-09 4.97207e-10 7.73091 5.47488 0.417314 -3.3499e-09 5.00284e-09 4.97216e-10 2.90554 0.965183 0.102902 -3.34989e-09 5.00284e-09 4.97218e-10 10.2786 0.731801 0.0259123 -3.3499e-09 5.00284e-09 4.97225e-10 2.22167 -0.733487 -0.20892 8.32538e-14 4.33663e-14 1.13265e-12 -87.6552 45.5706 11.5994 18.2722 -10.9822 -34.6334 0.363179 16.8977 -2.44679 -1.09836e-09 -2.17725e-09 -1.00454e-09 -1.91229e-09 -3.74189e-09 -1.72183e-09 -1.09836e-09 -2.17724e-09 -1.00453e-09 -7.73091 5.47488 -0.417314 -1.09836e-09 -2.17725e-09 -1.00454e-09 -2.90554 0.965183 -0.102902 -1.09837e-09 -2.17725e-09 -1.00454e-09 -10.2786 0.731801 -0.0259123 -1.09836e-09 -2.17725e-09 -1.00454e-09 -2.22167 -0.733487 0.20892 -2.03217e-16 0.0 -3.88251e-19 6.20569 -22.4738 -14.9912 -0.241768 41.2264 1.18192 -17.0772 -13.7547 -41.1839 2.03217e-16 0.0 3.88251e-19 -2.23204 -9.11489 -8.84497 0.133313 25.8549 -0.636283 7.29018 -16.4005 18.7375
58.1252 87.1502 -224.105 -181.295 -145.142 185.622 6.4096 -0.960078 0.880937 1.94103 -6.64301 0.420392 4.73445 9.68548 8.82568 -8.67296 -21.7781 15.3451 -0.0 0.0 0.0 -0.0 0.0 0.0 1.11795e-13 6.52033e-14 1.19286e-12 78.7261 28.2242 -14.5716 -14.855 -7.66548 27.2908 -0.429566 18.3081 2.6653 -4.12706e-09 5.8813e-09 4.14019e-10 -7.11976e-09 1.01738e-08 7.80817e-10 -4.12705e-09 5.8813e-09 4.14006e-10 7.73091 5.47488 0.417314 -4.12706e-09 5.8813e-09 4.14016e-10 2.90554 0.965183 0.102902 -4.12705e-09 5.8813e-09 4.14018e-10 10.2786 0.731801 0.0259123 -4.12706e-09 5.8813e-09 4.14022e-10 2.22167 -0.733487 -0.20892 1.11696e-13 6.51989e-14 1.19261e-12 -87.5527 44.9406 11.8111 18.2165 -10.9213 -34.5076 0.35435 16.6911 -2.41519 -1.50145e-09 -2.6414e-09 -1.33092e-09 -2.61387e-09 -4.53512e-09 -2.27997e-09 -1.50146e-09 -2.6414e-09 -1.33091e-09 -7.73091 5.47488 -0.417314 -1.50145e-09 -2.6414e-09 -1.33092e-09 -2.90554 0.965183 -0.102902 -1.50146e-09 -2.6414e-09 -1.33092e-09 -10.2786 0.731801 -0.0259123 -1.50145e-09 -2.6414e-09 -1.33093e-09 -2.22167 -0.733487 0.20892 -2.03217e-16 0.0 -3.88251e-19 5.32037 -23.0734 -15.8622 -0.262563 42.1474 1.22563 -17.0355 -13.6365 -40.9702 2.03217e-16 0.0 3.88251e-19 -2.76612 -8.78233 -9.78226 0.125892 25.1483 -0.620202 7.3843 -16.4369 18.9861
58.4312 87.1363 -224.021 -180.901 -145.922 185.31 6.19191 -0.728296 0.890727 1.92927 -6.64372 0.419127 4.48022 9.71023 8.66503 -8.714 -22.0147 15.0365 -0.0 0.0 0.0 -0.0 0.0 0.0 1.03976e-13 9.22079e-14 9.90181e-13 78.5711 28.449 -14.5901 -14.9849 -7.77748 27.5575 -0.415575 18.0225 2.62075 -3.52773e-09 5.17885e-09 1.43923e-10 -6.08855e-09 8.96014e-09 3.04502e-10 -3.52772e-09 5.17884e-09 1.43913e-10 7.73091 5.47488 0.417314 -3.52773e-09 5.17885e-09 1.43922e-10 2.90554 0.965183 0.102902 -3.52772e-09 5.17885e-09 1.43922e-10 10.2786 0.731801 0.0259123 -3.52773e-09 5.17885e-09 1.43926e-10 2.22167 -0.733487 -0.20892 1.0388e-13 9.22015e-14 9.89953e-13 -87.4554 44.3793 12.0416 18.162 -10.8619 -34.3843 0.359443 16.8087 -2.43319 -1.63722e-09 -2.48412e-09 -1.286e-09 -2.84841e-09 -4.258e-09 -2.19918e-09 -1.63722e-09 -2.48412e-09 -1.28599e-09 -7.73091 5.47488 -0.417314 -1.63722e-09 -2.48412e-09 -1.286e-09 -2.90554 0.965183 -0.102902 -1.63723e-09 -2.48412e-09 -1.286e-09 -10.2786 0.731801 -0.0259123 -1.63721e-09 -2.48412e-09 -1.28601e-09 -2.22167 -0.733487 0.20892 -2.03217e-16 0.0 -3.88251e-19 4.29305 -23.6645 -16.7846 -0.284802 43.1625 1.27182 -16.9375 -13.5709 -40.5733 2.03217e-16 0.0 3.88251e-19 -3.23393 -8.47024 -10.2506 0.118894 24.4632 -0.600593 7.31598 -16.4176 18.887
58.8056 87.0986 -224.104 -180.465 -147.021 185.178 5.91444 -0.431372 0.88344 1.93639 -6.6629 0.415176 4.22442 9.74628 8.49192 -8.80331 -22.2402 14.6951 -0.0 0.0 0.0 -0.0 0.0 0.0 7.23412e-14 1.2151e-13 5.97267e-13 78.3799 28.7055 -14.6049 -15.1396 -7.9111 27.8785 -0.399634 17.6864 2.56858 -2.03828e-09 3.43293e-09 -2.44858e-10 -3.52177e-09 5.9412e-09 -3.91369e-10 -2.03827e-09 3.43293e-09 -2.44865e-10 7.73091 5.47488 0.417314 -2.03828e-09 3.43293e-09 -2.44856e-10 2.90554 0.965183 0.102902 -2.03827e-09 3.43293e-09 -2.44858e-10 10.2786 0.731801 0.0259123 -2.03828e-09 3.43293e-09 -2.44854e-10 2.22167 -0.733487 -0.20892 7.22515e-14 1.21503e-13 5.97053e-13 -87.349 43.857 12.2707 18.1031 -10.7981 -34.2515 0.373461 17.1256 -2.48185 -1.59732e-09 -1.90639e-09 -9.83123e-10 -2.77585e-09 -3.25658e-09 -1.67435e-09 -1.59732e-09 -1.90638e-09 -9.83112e-10 -7.73091 5.47488 -0.417314 -1.59732e-09 -1.90639e-09 -9.83125e-10 -2.90554 0.965183 -0.102902 -1.59733e-09 -1.90639e-09 -9.83123e-10 -10.2786 0.731801 -0.0259123 -1.59731e-09 -1.90639e-09 -9.83131e-10 -2.22167 -0.733487 0.20892 -2.03217e-16 0.0 -3.88251e-19 3.13986 -24.2546 -17.7386 -0.309985 44.2779 1.32209 -16.795 -13.5357 -40.0353 2.03217e-16 0.0 3.88251e-19 -3.67719 -8.16743 -10.3825 0.112275 23.8042 -0.578993 7.14406 -16.3658 18.5619
59.1461 87.071 -224.186 -180.043 -148.08 184.894 5.61718 -0.11793 0.888054 1.93627 -6.70344 0.414585 3.99877 9.81806 8.29465 -8.93468 -22.479 14.2937 -0.0 0.0 0.0 -0.0 0.0 0.0 3.39841e-14 1.44724e-13 2.1032e-13 78.195 28.966 -14.6435 -15.3206 -8.06978 28.254 -0.382493 17.3157 2.51128 -4.52261e-10 1.59622e-09 -5.75918e-10 -7.87503e-10 2.76451e-09 -9.89228e-10 -4.52255e-10 1.59622e-09 -5.75922e-10 7.73091 5.47488 0.417314 -4.52263e-10 1.59622e-09 -5.75913e-10 2.90554 0.965183 0.102902 -4.52254e-10 1.59622e-09 -5.75918e-10 10.2786 0.731801 0.0259123 -4.52265e-10 1.59622e-09 -5.75913e-10 2.22167 -0.733487 -0.20892 3.39035e-14 1.44718e-13 2.10114e-13 -87.2045 43.3473 12.4997 18.0457 -10.7361 -34.1226 0.389891 17.4819 -2.53687 -1.51094e-09 -1.22521e-09 -6.06025e-10 -2.62191e-09 -2.07732e-09 -1.02191e-09 -1.51094e-09 -1.22521e-09 -6.06013e-10 -7.73091 5.47488 -0.417314 -1.51093e-09 -1.22522e-09 -6.06032e-10 -2.90554 0.965183 -0.102902 -1.51094e-09 -1.22521e-09 -6.06026e-10 -10.2786 0.731801 -0.0259123 -1.51093e-09 -1.22521e-09 -6.06034e-10 -2.22167 -0.733487 0.20892 -2.03217e-16 0.0 -3.88251e-19 1.95492 -24.8553 -18.5985 -0.340177 45.4416 1.36906 -16.4638 -13.339 -39.3658 2.03217e-16 0.0 3.88251e-19 -4.12754 -7.87846 -10.4642 0.105863 23.1738 -0.558383 6.97581 -16.3387 18.2245
